<svg xmlns="http://www.w3.org/2000/svg" xmlns:xlink="http://www.w3.org/1999/xlink" xmlns:svgjs="http://svgjs.dev/svgjs" version="1.1" width="2000" height="1500" viewBox="0 0 2000 1500"><rect width="2000" height="1500" fill="#ffffff"/><g transform="matrix(0.44603033006244425,0,0,0.44603033006244425,552.5806798124848,250)"><svg xmlns="http://www.w3.org/2000/svg" xmlns:xlink="http://www.w3.org/1999/xlink" viewBox="0 0 321 360" data-background-color="#ffffff" preserveAspectRatio="xMidYMid meet" height="2242" width="2000"><g id="tight-bounds" transform="matrix(1,0,0,1,0.5001844044044219,0)"><svg viewBox="0 0 320 360" height="360" width="320"><g><svg/></g><g><svg viewBox="0 0 320 360" height="360" width="320"><g><path d="M294.684 112.125c-8.775-10.699-25.381-16.201-43-22.006-7.56-2.498-15.357-5.097-22.985-8.235-7.695-3.173-15.256-7.257-22.613-11.172-14.952-8.033-30.41-16.336-46.105-16.336-15.661 0-31.119 8.303-46.071 16.336-7.358 3.949-14.952 8.033-22.648 11.205-7.594 3.139-15.425 5.704-22.985 8.236-17.618 5.839-34.224 11.341-42.999 22.006-11.712 14.277-11.442 35.439-11.172 57.817 0.034 3.375 0.068 6.717 0.067 10.024 0 3.308-0.034 6.649-0.101 10.024-0.27 22.411-0.54 43.54 11.172 57.851 8.775 10.666 25.381 16.167 42.966 22.006 7.56 2.498 15.357 5.097 23.019 8.235 7.695 3.173 15.256 7.223 22.579 11.172 14.986 8.067 30.444 16.37 46.105 16.37 15.695 0 31.153-8.303 46.105-16.336 7.358-3.949 14.918-8.033 22.614-11.172 7.594-3.139 15.357-5.704 22.884-8.202 17.72-5.873 34.326-11.374 43.101-22.039 11.712-14.277 11.442-35.439 11.171-57.817-0.034-3.409-0.101-6.75-0.101-10.058 0-3.308 0.034-6.649 0.101-9.991 0.371-22.479 0.641-43.641-11.104-57.918zM305.552 103.215c-15.728-19.171-45.801-23.727-71.486-34.326-22.985-9.45-46.375-28.588-74.051-28.587-27.676 0-51.066 19.137-74.052 28.587-25.719 10.598-55.758 15.155-71.486 34.326-17.078 20.791-14.311 50.121-14.311 76.785 0 26.63-2.768 55.994 14.277 76.785 15.728 19.171 45.801 23.727 71.487 34.326 22.985 9.484 46.375 28.588 74.051 28.587 27.676 0 51.066-19.103 74.051-28.587 25.719-10.598 55.758-15.155 71.486-34.326 17.045-20.791 14.277-50.121 14.277-76.785 0.068-26.664 2.835-55.994-14.243-76.785zM309.872 189.923c0.304 23.221 0.574 45.059-12.083 60.483-9.518 11.577-26.664 17.281-44.822 23.289-7.56 2.498-15.29 5.063-22.715 8.134-7.493 3.071-14.952 7.088-22.175 10.969-15.458 8.303-31.355 16.842-48.062 16.842-16.707 0-32.604-8.539-47.995-16.808-7.257-3.915-14.75-7.932-22.243-11.003-7.527-3.105-15.256-5.67-22.748-8.134-18.192-6.008-35.338-11.712-44.823-23.289-12.623-15.391-12.353-37.262-12.083-60.415 0.034-3.375 0.101-6.683 0.101-9.991 0-3.308-0.034-6.615-0.067-9.991-0.304-23.154-0.574-45.025 12.083-60.415 9.518-11.577 26.664-17.247 44.822-23.289 7.527-2.498 15.256-5.063 22.749-8.134 7.493-3.105 14.986-7.122 22.242-11.003 15.391-8.269 31.322-16.842 47.995-16.842 16.673 0 32.604 8.539 47.995 16.808 7.257 3.915 14.75 7.932 22.243 11.003 7.493 3.105 15.256 5.637 22.715 8.134 18.158 6.008 35.338 11.712 44.822 23.289 12.657 15.425 12.387 37.262 12.083 60.416-0.034 3.409-0.101 6.717-0.101 9.99 0 3.308 0.034 6.615 0.067 9.957z" fill="#003d79" fill-rule="nonzero" stroke="none" stroke-width="1" stroke-linecap="butt" stroke-linejoin="miter" stroke-miterlimit="10" stroke-dasharray="" stroke-dashoffset="0" font-family="none" font-weight="none" font-size="none" text-anchor="none" style="mix-blend-mode: normal" data-fill-palette-color="tertiary"/></g><g transform="matrix(1,0,0,1,64,147.91709844559585)"><svg viewBox="0 0 192 64.16580310880829" height="64.16580310880829" width="192"><g><svg viewBox="0 0 192 64.16580310880829" height="64.16580310880829" width="192"><g><svg viewBox="0 0 192 64.16580310880829" height="64.16580310880829" width="192"><g id="textblocktransform"><svg viewBox="0 0 192 64.16580310880829" height="64.16580310880829" width="192" id="textblock"><g><svg viewBox="0 0 192 64.16580310880829" height="64.16580310880829" width="192"><g transform="matrix(1,0,0,1,0,0)"><svg width="192" viewBox="2.34 -37.01 113.08 37.79" height="64.16580310880829" data-palette-color="#ffdc00"><path d="M37.89 0.1L37.89 0.1Q37.35 0.63 35.63 0.73 33.91 0.83 31.4 0.68 28.88 0.54 28.71 0.54L28.71 0.54Q27.05 0.54 26.32 0.49L26.32 0.49 23.88 0.49Q23.34 0.32 22.97-1.11 22.61-2.54 22.25-5.21 21.9-7.89 21.88-8.06L21.88-8.06Q21.78-10.47 21.09-11.24 20.41-12.01 18.6-12.01L18.6-12.01 17.53-12.01 17.53-0.1Q17.48 0.2 17.02 0.39 16.55 0.59 15.69 0.65 14.82 0.71 14.15 0.72 13.48 0.73 12.38 0.71 11.28 0.68 11.04 0.68L11.04 0.68 7.52 0.68Q4.54 0.68 3.03 0.73L3.03 0.73Q2.69 0.59 2.34 0.39L2.34 0.39 2.34-36.04Q2.34-36.72 4.3-36.72L4.3-36.72 25.59-36.72Q31.13-36.57 34.02-34.08 36.91-31.59 36.91-27.05L36.91-27.05Q36.91-21.14 30.96-18.41L30.96-18.41Q32.06-18.07 32.93-17.46 33.81-16.85 34.4-16.15 34.99-15.45 35.42-14.48 35.86-13.5 36.11-12.65 36.35-11.79 36.54-10.62 36.72-9.45 36.79-8.59 36.87-7.74 36.98-6.56 37.08-5.37 37.16-4.69L37.16-4.69 37.16-2.54Q37.23-2.15 37.61-1.44 37.99-0.73 38.09-0.39L38.09-0.39Q38.09 0.1 37.89 0.1ZM17.38-26.37L17.38-26.37Q17.38-24.9 17.41-24.19 17.43-23.49 17.68-22.34 17.92-21.19 18.41-20.7L18.41-20.7Q19.43-20.7 20.35-20.92 21.26-21.14 22.12-21.63 22.97-22.12 23.47-23.08 23.97-24.05 23.97-25.39L23.97-25.39Q23.97-26.15 23.71-26.72 23.44-27.29 22.92-27.64 22.41-27.98 21.91-28.19 21.41-28.39 20.69-28.48 19.97-28.56 19.56-28.59 19.14-28.61 18.55-28.61L18.55-28.61 17.97-28.61Q17.6-28.44 17.49-27.93 17.38-27.42 17.38-26.37ZM40.67-1.37L40.67-35.84Q40.67-36.11 40.98-36.32 41.28-36.52 41.87-36.63 42.45-36.74 43.04-36.82 43.63-36.89 44.44-36.91 45.26-36.94 45.8-36.94 46.34-36.94 47.03-36.93 47.73-36.91 47.85-36.91L47.85-36.91 50.58-36.91Q51.39-36.91 52.84-36.96 54.29-37.01 54.98-37.01L54.98-37.01Q66.62-37.01 71.63-33.01L71.63-33.01 72.51-32.23Q72.92-31.84 73.44-31.21 73.95-30.59 74.69-29.33 75.44-28.08 76.02-26.61 76.61-25.15 77.02-23 77.44-20.85 77.44-18.55L77.44-18.55Q77.44-14.99 76.46-11.89 75.49-8.79 73.79-6.52 72.09-4.25 69.81-2.6 67.53-0.95 64.87-0.13 62.2 0.68 59.37 0.68L59.37 0.68 58.59 0.68Q57.54 0.68 55.47 0.63 53.39 0.59 52.34 0.59L52.34 0.59Q46.21 0.59 41.26 0.78L41.26 0.78Q40.67-0.39 40.67-1.37L40.67-1.37ZM55.03-7.81L55.03-7.81Q56.49-7.81 57.66-8.14 58.84-8.47 59.64-9.01 60.45-9.55 61.06-10.38 61.67-11.21 62.02-12.08 62.38-12.96 62.58-14.1 62.79-15.23 62.86-16.25 62.94-17.26 62.94-18.51L62.94-18.51 62.94-20.02Q62.94-24.51 61.15-26.65 59.37-28.78 54.93-28.91L54.93-28.91Q54.81-28.64 54.54-28.17 54.27-27.71 54.15-27.44L54.15-27.44 54.15-26.27Q54.15-25.9 54.12-24.37L54.12-24.37Q53.81-8.01 55.03-7.81ZM80.85-3.32L80.85-3.32 80.85-35.84Q80.85-36.01 81.01-36.13 81.17-36.25 81.51-36.3 81.86-36.35 82.11-36.38 82.37-36.4 82.84-36.41 83.32-36.43 83.49-36.43L83.49-36.43 103.32-36.43Q105.76-36.43 107.93-35.66 110.1-34.89 111.79-33.42 113.47-31.96 114.45-29.64 115.42-27.32 115.42-24.41L115.42-24.41Q115.42-22.27 114.92-20.48 114.42-18.7 113.61-17.44 112.79-16.19 111.6-15.19 110.42-14.18 109.19-13.57 107.95-12.96 106.46-12.54 104.98-12.11 103.72-11.91 102.46-11.72 101.07-11.62L101.07-11.62 96.38-11.62Q96.19-7.79 96.19-3.03L96.19-3.03 96.19-0.29Q96.11 0.59 95.36 0.59L95.36 0.59 81.49 0.59Q80.85-1.1 80.85-3.32ZM94.62-20.41L94.62-20.41 95.41-19.34Q96.41-19.34 97.32-19.48 98.24-19.63 99.12-20 100-20.36 100.63-20.94 101.26-21.51 101.66-22.4 102.05-23.29 102.05-24.41L102.05-24.41Q102.05-25.27 101.81-25.94 101.58-26.61 101.25-27.04 100.92-27.47 100.35-27.78 99.78-28.1 99.27-28.26 98.77-28.42 98.01-28.5 97.24-28.59 96.74-28.6 96.24-28.61 95.45-28.61L95.45-28.61Q94.62-28.22 94.62-20.41Z" opacity="1" transform="matrix(1,0,0,1,0,0)" fill="#ffdc00" class="wordmark-text-0" data-fill-palette-color="quaternary" id="text-0"/></svg></g></svg></g></svg></g></svg></g></svg></g></svg></g></svg></g><defs/></svg><rect width="320" height="360" fill="none" stroke="none" visibility="hidden"/></g></svg></g></svg>